<svg xmlns="http://www.w3.org/2000/svg" viewBox="0 0 20 20" id="svg9193174154"><path d="M 18.293 6.518 C 18.214 6.327 18.081 6.165 17.91 6.05 C 17.738 5.936 17.537 5.875 17.331 5.875 L 12.914 5.875 L 10.96 1.314 C 10.88 1.126 10.747 0.966 10.576 0.854 C 10.406 0.742 10.206 0.682 10.002 0.682 C 9.798 0.682 9.599 0.742 9.428 0.854 C 9.258 0.966 9.124 1.126 9.044 1.314 L 7.091 5.875 L 2.675 5.875 C 2.469 5.875 2.267 5.936 2.096 6.051 C 1.925 6.165 1.791 6.328 1.712 6.518 C 1.633 6.709 1.613 6.918 1.653 7.12 C 1.693 7.322 1.792 7.508 1.938 7.654 L 5.144 10.859 L 3.801 16.235 C 3.751 16.433 3.761 16.642 3.829 16.834 C 3.897 17.027 4.02 17.195 4.182 17.318 C 4.345 17.441 4.54 17.514 4.744 17.527 C 4.948 17.54 5.151 17.493 5.328 17.392 L 10.003 14.72 L 14.679 17.393 C 14.856 17.494 15.059 17.541 15.263 17.528 C 15.466 17.514 15.662 17.442 15.824 17.318 C 15.987 17.195 16.11 17.026 16.177 16.834 C 16.245 16.642 16.255 16.433 16.206 16.235 L 14.862 10.859 L 18.067 7.654 C 18.213 7.508 18.313 7.323 18.353 7.12 C 18.393 6.918 18.372 6.708 18.293 6.518 Z" fill="var(--token-1b954fc6-275c-491d-89d1-beb02399b60c, rgb(255, 131, 66))"></path></svg>