<svg xmlns="http://www.w3.org/2000/svg" width="171" height="32" fill="none"><path fill="#AF4F29" d="M14.233 20.018c.423-4.348 2.573-9.079 6.056-13.32a18.9 18.9 0 0 1 4.68-4.113C26.658 1.545 28.437.83 30.258.457a13.7 13.7 0 0 1 2.747-.285q1.274 0 2.486.255 1.21.255 2.293.751a.589.589 0 0 1-.052 1.091 14.3 14.3 0 0 0-4.855 2.837c-2.048 1.829-3.438 4.175-4.021 6.785-.28 1.252-.387 2.563-.491 3.83-.115 1.394-.233 2.834-.583 4.147-.697 2.614-2.367 4.945-4.83 6.74-1.348.983-2.954 1.82-4.789 2.497a1.53 1.53 0 0 1-1.708-.461c-1.776-2.147-2.559-5.145-2.22-8.626m28.742-2.65a18.9 18.9 0 0 1-3.124 5.392 28.5 28.5 0 0 1-5.638 5.264c-1.986 1.394-4.036 2.428-6.093 3.072-2.04.64-3.98.861-5.764.66a9.4 9.4 0 0 1-3.094-.88.583.583 0 0 1 .038-1.063c1.613-.656 3.047-1.439 4.282-2.34 2.663-1.94 4.473-4.475 5.235-7.33.374-1.404.497-2.894.614-4.334.101-1.231.206-2.505.47-3.685.534-2.39 1.81-4.54 3.689-6.22 1.623-1.45 3.617-2.48 5.817-3.012a1.48 1.48 0 0 1 1.4.395 10.6 10.6 0 0 1 2.237 3.342c.666 1.562.999 3.29.989 5.139-.01 1.858-.366 3.743-1.058 5.6"/><path fill="#FF8342" d="M18.908 31.597a1.37 1.37 0 0 1-.774-1.293q.008-.193.063-.37a2.33 2.33 0 0 1-2.36-.778c-.963-1.162-1.656-2.55-2.063-4.123-.402-1.557-.516-3.27-.34-5.092.155-1.587.53-3.22 1.106-4.862-.087-.999-.196-2.007-.407-2.955-.535-2.39-1.81-4.54-3.69-6.22-1.623-1.45-3.617-2.48-5.817-3.012a1.48 1.48 0 0 0-1.4.395A10.6 10.6 0 0 0 .988 6.629C.323 8.191-.01 9.92 0 11.768c.01 1.858.366 3.743 1.058 5.6a18.9 18.9 0 0 0 3.124 5.392 28.5 28.5 0 0 0 5.638 5.264c1.986 1.394 4.035 2.427 6.092 3.072q1.757.55 3.4.687a9 9 0 0 1-.404-.186m.155-29.012C17.376 1.545 15.597.83 13.776.457a13.7 13.7 0 0 0-2.747-.285q-1.274 0-2.486.255-1.21.255-2.294.751a.589.589 0 0 0 .052 1.091 14.3 14.3 0 0 1 4.856 2.837c2.047 1.829 3.438 4.175 4.021 6.785q.12.544.204 1.1c1.055-2.323 2.5-4.628 4.287-6.803a20 20 0 0 1 1.749-1.877 18.4 18.4 0 0 0-2.355-1.726"/><path fill="#664237" d="M68.625 7.881q0 3.2-1.434 4.84-1.433 1.613-4.619 2.142v.423a9.8 9.8 0 0 1 2.283.555 6.1 6.1 0 0 1 3.24 2.777q.555.978.796 2.063.264 1.19.265 2.645a11.3 11.3 0 0 1-.345 2.856 7.6 7.6 0 0 1-.982 2.354 7.1 7.1 0 0 1-1.673 1.798 7 7 0 0 1-2.097 1.031q-1.222.37-2.655.37h-9.371V.265h9.132q1.354 0 2.522.343a6.5 6.5 0 0 1 2.097.952q.876.661 1.487 1.534.638.873 1.035 2.142.16.609.24 1.27.079.66.079 1.375m-9.053-1.798h-1.3v6.532h1.3q1.089 0 1.779-.582.319-.264.531-.635a3.5 3.5 0 0 0 .398-.925 5.5 5.5 0 0 0 .106-1.111q0-1.217-.478-2.036a3 3 0 0 0-.584-.662 2 2 0 0 0-.77-.45 4 4 0 0 0-.982-.131m-1.3 19.834h1.619q1.142 0 1.885-.634.398-.318.637-.767.24-.477.372-1.058.132-.635.132-1.296a5 5 0 0 0-.159-1.243 4 4 0 0 0-.372-1.084q-.557-.953-1.46-1.243a3.3 3.3 0 0 0-1.035-.159h-1.62zm25.039 5.819H70.037V.263h13.141v5.819h-6.902v6.003h6.371v5.818h-6.37v8.013h7.034z"/><path fill="#664237" d="M82.852 31.736 87.79.263h8.92l4.937 31.472h-6.238l-.93-7.22h-4.46l-.928 7.22zm7.911-13.038h2.973l-1.062-9.865a35 35 0 0 1-.08-1.084q-.026-.503-.052-1.058a31 31 0 0 1-.027-1.402h-.53v1.137a3 3 0 0 0-.027.397q0 .264-.027.556a5 5 0 0 0-.026.528q0 .53-.08.926zm17.452 5.342v7.695h-6.239V.265h7.301l2.363 8.462q.318 1.085.663 2.433.346 1.323.664 2.671.318 1.323.531 2.354.479 2.195.849 4.073.372 1.878.744 3.861.159.953.292 1.851.133.926.265 1.799h.531q-.212-1.402-.398-2.513-.186-1.137-.372-2.327t-.398-2.83a82 82 0 0 1-.371-2.618q-.186-1.48-.346-2.91a42 42 0 0 1-.212-2.564 84 84 0 0 1-.133-1.905 68 68 0 0 1-.026-1.824V.264h6.238v31.472h-6.902l-2.442-8.172a59 59 0 0 1-.611-2.116q-.345-1.269-.743-2.698-.372-1.454-.69-2.856-.452-1.931-.903-3.967a95 95 0 0 1-.796-4.046 90 90 0 0 1-.346-1.878 131 131 0 0 1-.292-1.772h-.531q.266 1.72.585 3.65.318 1.904.637 4.046.266 2.063.531 4.179a87 87 0 0 1 .424 4.099q.053 1.005.08 1.983.053.952.053 1.852m30.464-15.577q0 2.354-.982 4.02a5.8 5.8 0 0 1-1.115 1.401q-.637.609-1.593 1.032a7 7 0 0 1-1.938.476v.423q.956 0 1.938.608.93.608 1.46 1.613.133.265.213.53.105.264.185.528l3.16 12.641h-6.239l-3.69-13.302h-2.018v13.302h-6.238V.265h9.291q1.275 0 2.443.396a6.7 6.7 0 0 1 2.15 1.11 7.4 7.4 0 0 1 1.593 1.746 8 8 0 0 1 1.035 2.248q.345 1.296.345 2.698m-10.619 4.152h1.46q.505 0 .956-.132.478-.132.876-.424.69-.555.982-1.586.107-.45.107-1.111 0-1.507-.77-2.38-.77-.9-2.151-.9h-1.46z"/><path fill="#664237" d="M138.097 15.815q0-2.619.823-4.946a16.4 16.4 0 0 1 2.309-4.363 15.7 15.7 0 0 1 3.478-3.438 16.9 16.9 0 0 1 4.38-2.248 15.6 15.6 0 0 1 2.416-.608A15.7 15.7 0 0 1 154.078 0q2.682 0 5.044.846a17 17 0 0 1 4.327 2.222q2.257 1.665 3.664 3.729 1.407 2.036 2.097 4.046.398 1.19.611 2.433t.212 2.539q0 2.591-.823 5.051a16.2 16.2 0 0 1-2.257 4.496 16.7 16.7 0 0 1-3.53 3.517 16.1 16.1 0 0 1-4.328 2.275q-2.416.846-5.017.846-2.655 0-5.044-.846a16.6 16.6 0 0 1-4.354-2.301 17 17 0 0 1-3.477-3.465q-1.461-1.983-2.283-4.495a16 16 0 0 1-.611-2.46 16 16 0 0 1-.212-2.618m6.238.053q0 1.613.505 3.173.504 1.56 1.38 2.75.956 1.323 2.177 2.249 1.221.9 2.628 1.348a9.1 9.1 0 0 0 3.08.53 9.3 9.3 0 0 0 3.053-.503 9.7 9.7 0 0 0 2.654-1.455q1.196-.9 2.097-2.142a10 10 0 0 0 1.381-2.777q.238-.74.372-1.534a10 10 0 0 0 .132-1.64q0-1.56-.504-3.04a9.7 9.7 0 0 0-1.381-2.698q-1.857-2.512-4.778-3.544a9.2 9.2 0 0 0-3.026-.502q-1.275 0-2.761.423-1.487.396-2.974 1.48a10.6 10.6 0 0 0-2.15 2.116 9.3 9.3 0 0 0-1.38 2.672 10.6 10.6 0 0 0-.372 1.533 9 9 0 0 0-.133 1.56"/></svg>